{"accessors":[{"bufferView":2,"componentType":5126,"count":438,"max":[1.6995362043380737,16.63956642150879,22.498851776123047],"min":[-1.6995317935943604,13.546247482299805,3.7832326889038086],"type":"VEC3"},{"bufferView":2,"byteOffset":5256,"componentType":5126,"count":438,"max":[1,1,1],"min":[-1,-1,-1],"type":"VEC3"},{"bufferView":1,"componentType":5125,"count":1110,"type":"SCALAR"},{"bufferView":2,"byteOffset":10512,"componentType":5126,"count":423,"max":[2.621659517288208,15.730778694152832,51.57910919189453],"min":[-2.621659517288208,2.158121109008789,-23.89685821533203],"type":"VEC3"},{"bufferView":2,"byteOffset":15588,"componentType":5126,"count":423,"max":[1,1,0.9510901570320129],"min":[-1,-1,-1],"type":"VEC3"},{"bufferView":1,"byteOffset":4440,"componentType":5125,"count":1158,"type":"SCALAR"},{"bufferView":2,"byteOffset":20664,"componentType":5126,"count":4905,"max":[2.9321658611297607,17.27186393737793,106.73246765136719],"min":[-6.476486682891846,0.16720962524414062,-30.907257080078125],"type":"VEC3"},{"bufferView":2,"byteOffset":79524,"componentType":5126,"count":4905,"max":[1,1,1],"min":[-1,-1,-1],"type":"VEC3"},{"bufferView":1,"byteOffset":9072,"componentType":5125,"count":16392,"type":"SCALAR"},{"bufferView":2,"byteOffset":138384,"componentType":5126,"count":3305,"max":[2.109027624130249,16.335723876953125,52.447021484375],"min":[-2.109027624130249,0.01399608887732029,-23.789653778076172],"type":"VEC3"},{"bufferView":2,"byteOffset":178044,"componentType":5126,"count":3305,"max":[1,1,1],"min":[-1,-1,-1],"type":"VEC3"},{"bufferView":1,"byteOffset":74640,"componentType":5125,"count":11001,"type":"SCALAR"},{"bufferView":2,"byteOffset":217704,"componentType":5126,"count":252,"max":[1.2361854314804077,13.683259010314941,22.560836791992188],"min":[-1.198793649673462,4.218513488769531,12.615742683410645],"type":"VEC3"},{"bufferView":2,"byteOffset":220728,"componentType":5126,"count":252,"max":[1,1,1],"min":[-1,-0.9999833106994629,-1],"type":"VEC3"},{"bufferView":1,"byteOffset":118644,"componentType":5125,"count":348,"type":"SCALAR"},{"bufferView":2,"byteOffset":223752,"componentType":5126,"count":805,"max":[0.5086339116096497,13.847455978393555,22.228384017944336],"min":[-0.508634090423584,6.183393478393555,20.03470802307129],"type":"VEC3"},{"bufferView":2,"byteOffset":233412,"componentType":5126,"count":805,"max":[0.9977208971977234,0.9977208971977234,0.9985073208808899],"min":[-0.9977208971977234,-0.9977208971977234,0.06747670471668243],"type":"VEC3"},{"bufferView":1,"byteOffset":120036,"componentType":5125,"count":4320,"type":"SCALAR"},{"bufferView":2,"byteOffset":243072,"componentType":5126,"count":3360,"max":[0.7743476033210754,14.11316967010498,20.03470802307129],"min":[-0.774347722530365,5.917679786682129,12.90815544128418],"type":"VEC3"},{"bufferView":2,"byteOffset":283392,"componentType":5126,"count":3360,"max":[1,1,1],"min":[-1,-1,-1],"type":"VEC3"},{"bufferView":1,"byteOffset":137316,"componentType":5125,"count":11520,"type":"SCALAR"},{"bufferView":2,"byteOffset":323712,"componentType":5126,"count":805,"max":[0.29302799701690674,13.63184928894043,12.97256851196289],"min":[-0.2930280864238739,6.398999214172363,12.913609504699707],"type":"VEC3"},{"bufferView":2,"byteOffset":333372,"componentType":5126,"count":805,"max":[0.7388619780540466,0.7388772368431091,-0.6738377213478088],"min":[-0.7388772368431091,-0.7388619780540466,-1],"type":"VEC3"},{"bufferView":1,"byteOffset":183396,"componentType":5125,"count":3360,"type":"SCALAR"},{"bufferView":2,"byteOffset":343032,"componentType":5126,"count":2464,"max":[2.8344409465789795,23.15237808227539,37.69914245605469],"min":[-2.834440231323242,17.483495712280273,5.131196022033691],"type":"VEC3"},{"bufferView":2,"byteOffset":372600,"componentType":5126,"count":2464,"max":[1,1,1],"min":[-1,-1,-1],"type":"VEC3"},{"bufferView":1,"byteOffset":196836,"componentType":5125,"count":8640,"type":"SCALAR"},{"bufferView":2,"byteOffset":402168,"componentType":5126,"count":451,"max":[2.339749574661255,22.657682418823242,36.92348861694336],"min":[-2.339747428894043,17.978185653686523,5.94361686706543],"type":"VEC3"},{"bufferView":2,"byteOffset":407580,"componentType":5126,"count":451,"max":[0.9951849579811096,0.995185375213623,1],"min":[-0.9951848983764648,-0.9951854944229126,-1],"type":"VEC3"},{"bufferView":1,"byteOffset":231396,"componentType":5125,"count":768,"type":"SCALAR"},{"bufferView":2,"byteOffset":412992,"componentType":5126,"count":1391,"max":[3.360297203063965,23.897056579589844,21.8009033203125],"min":[-1.1353747844696045,17.026784896850586,13.28983211517334],"type":"VEC3"},{"bufferView":2,"byteOffset":429684,"componentType":5126,"count":1391,"max":[1,1,1],"min":[-1,-1,-1],"type":"VEC3"},{"bufferView":1,"byteOffset":234468,"componentType":5125,"count":4284,"type":"SCALAR"},{"bufferView":2,"byteOffset":446376,"componentType":5126,"count":1460,"max":[1.734472632408142,22.04029655456543,22.120304107666016],"min":[-1.731828212738037,16.764402389526367,12.971053123474121],"type":"VEC3"},{"bufferView":2,"byteOffset":463896,"componentType":5126,"count":1460,"max":[1,1,1],"min":[-1,-1,-1],"type":"VEC3"},{"bufferView":1,"byteOffset":251604,"componentType":5125,"count":3882,"type":"SCALAR"},{"bufferView":2,"byteOffset":481416,"componentType":5126,"count":698,"max":[0.9007089138031006,20.360977172851562,36.88018798828125],"min":[-0.9007094502449036,19.556543350219727,36.86962890625],"type":"VEC3"},{"bufferView":2,"byteOffset":489792,"componentType":5126,"count":698,"max":[1,1,1],"min":[-1,-1,-1],"type":"VEC3"},{"bufferView":1,"byteOffset":267132,"componentType":5125,"count":1992,"type":"SCALAR"},{"bufferView":4,"componentType":5126,"count":13,"max":[1,1.601086206974231e-13,2.3841852225814364e-7,0,1.6080588238764904e-7,1,0.16862085461616516,0,2.220446049250313e-16,1.0000001192092896,1,0,0.000017843211026047356,9.539824485778809,16.6318302154541,1],"min":[1,-1.1937189518113067e-12,-0.0000022331898890115554,0,-0.0000022331898890115554,-0.9856810569763184,-1.0000001192092896,0,-9.400038152307388e-7,-0.16862085461616516,-0.9856870770454407,0,0,-16.615869522094727,-17.460403442382812,1],"type":"MAT4"},{"bufferView":0,"componentType":5123,"count":438,"type":"VEC4"},{"bufferView":3,"componentType":5126,"count":438,"max":[1,0,0,0],"min":[1,0,0,0],"type":"VEC4"},{"bufferView":0,"byteOffset":3504,"componentType":5123,"count":423,"type":"VEC4"},{"bufferView":3,"byteOffset":7008,"componentType":5126,"count":423,"max":[1,0,0,0],"min":[1,0,0,0],"type":"VEC4"},{"bufferView":0,"byteOffset":6888,"componentType":5123,"count":4905,"type":"VEC4"},{"bufferView":3,"byteOffset":13776,"componentType":5126,"count":4905,"max":[1,0,0,0],"min":[1,0,0,0],"type":"VEC4"},{"bufferView":0,"byteOffset":46128,"componentType":5123,"count":3305,"type":"VEC4"},{"bufferView":3,"byteOffset":92256,"componentType":5126,"count":3305,"max":[1,0,0,0],"min":[1,0,0,0],"type":"VEC4"},{"bufferView":0,"byteOffset":72568,"componentType":5123,"count":252,"type":"VEC4"},{"bufferView":3,"byteOffset":145136,"componentType":5126,"count":252,"max":[1,0,0,0],"min":[1,0,0,0],"type":"VEC4"},{"bufferView":0,"byteOffset":74584,"componentType":5123,"count":805,"type":"VEC4"},{"bufferView":3,"byteOffset":149168,"componentType":5126,"count":805,"max":[1,0,0,0],"min":[1,0,0,0],"type":"VEC4"},{"bufferView":0,"byteOffset":81024,"componentType":5123,"count":3360,"type":"VEC4"},{"bufferView":3,"byteOffset":162048,"componentType":5126,"count":3360,"max":[1,0,0,0],"min":[1,0,0,0],"type":"VEC4"},{"bufferView":0,"byteOffset":107904,"componentType":5123,"count":805,"type":"VEC4"},{"bufferView":3,"byteOffset":215808,"componentType":5126,"count":805,"max":[1,0,0,0],"min":[1,0,0,0],"type":"VEC4"},{"bufferView":0,"byteOffset":114344,"componentType":5123,"count":2464,"type":"VEC4"},{"bufferView":3,"byteOffset":228688,"componentType":5126,"count":2464,"max":[1,0,0,0],"min":[1,0,0,0],"type":"VEC4"},{"bufferView":0,"byteOffset":134056,"componentType":5123,"count":451,"type":"VEC4"},{"bufferView":3,"byteOffset":268112,"componentType":5126,"count":451,"max":[1,0,0,0],"min":[1,0,0,0],"type":"VEC4"},{"bufferView":0,"byteOffset":137664,"componentType":5123,"count":1391,"type":"VEC4"},{"bufferView":3,"byteOffset":275328,"componentType":5126,"count":1391,"max":[1,0,0,0],"min":[1,0,0,0],"type":"VEC4"},{"bufferView":0,"byteOffset":148792,"componentType":5123,"count":1460,"type":"VEC4"},{"bufferView":3,"byteOffset":297584,"componentType":5126,"count":1460,"max":[1,0,0,0],"min":[1,0,0,0],"type":"VEC4"}],"asset":{"extras":{"author":"Aronvctr (https://sketchfab.com/aronvctr)","license":"CC-BY-SA-4.0 (http://creativecommons.org/licenses/by-sa/4.0/)","source":"https://sketchfab.com/3d-models/l11a3awpawm-976f084d925e4f6884a8c1d959c59d38","title":"L11A3/AWP/AWM"},"generator":"Sketchfab-10.55.0","version":"2.0"},"bufferViews":[{"buffer":0,"byteLength":160472,"byteStride":8,"name":"shortBufferViews","target":34962},{"buffer":0,"byteLength":275100,"byteOffset":160472,"name":"floatBufferViews","target":34963},{"buffer":0,"byteLength":498168,"byteOffset":435572,"byteStride":12,"name":"floatBufferViews","target":34962},{"buffer":0,"byteLength":320944,"byteOffset":933740,"byteStride":16,"name":"floatBufferViews","target":34962},{"buffer":0,"byteLength":832,"byteOffset":1254684,"byteStride":64,"name":"floatBufferViews"}],"buffers":[{"byteLength":1255516,"uri":"data:application/octet-stream;base64,"}],"extensionsUsed":["KHR_materials_transmission"],"materials":[{"doubleSided":true,"name":"M_DimGray","pbrMetallicRoughness":{"baseColorFactor":[0.12371,0.12371,0.12371,1],"metallicFactor":0,"roughnessFactor":0.930214}},{"doubleSided":true,"name":"M_Gray","pbrMetallicRoughness":{"baseColorFactor":[0.0802198,0.0865005,0.0781874,1],"metallicFactor":0,"roughnessFactor":0.930214}},{"doubleSided":true,"name":"M_Black","pbrMetallicRoughness":{"baseColorFactor":[0.093059,0.093059,0.0908417,1],"metallicFactor":0.95,"roughnessFactor":0.5}},{"doubleSided":true,"name":"material","pbrMetallicRoughness":{"baseColorFactor":[0.577581,0.40724,0.158961,1],"metallicFactor":0,"roughnessFactor":0.5}},{"doubleSided":true,"name":"M_Copper","pbrMetallicRoughness":{"baseColorFactor":[0.109462,0.06301,0.0295568,1],"metallicFactor":0,"roughnessFactor":0.5}},{"doubleSided":true,"name":"M_latao","pbrMetallicRoughness":{"baseColorFactor":[0.158961,0.107023,0.0144438,1],"metallicFactor":0,"roughnessFactor":0.5}},{"doubleSided":true,"name":"M_Silver","pbrMetallicRoughness":{"baseColorFactor":[0.0908417,0.107023,0.111932,1],"metallicFactor":0,"roughnessFactor":0.5}},{"alphaMode":"BLEND","doubleSided":true,"extensions":{"KHR_materials_transmission":{"transmissionFactor":1}},"name":"M_AntiqueWhite","pbrMetallicRoughness":{"baseColorFactor":[0.980392,0.921569,0.843137,0.25],"metallicFactor":0,"roughnessFactor":0.930214}},{"emissiveFactor":[1,0,0],"name":"M_Red_dot","pbrMetallicRoughness":{"baseColorFactor":[1,0,0.0065997,1],"metallicFactor":0,"roughnessFactor":0.930214}}],"meshes":[{"name":"Object_0","primitives":[{"attributes":{"JOINTS_0":40,"NORMAL":1,"POSITION":0,"WEIGHTS_0":41},"indices":2,"material":0,"mode":4}]},{"name":"Object_1","primitives":[{"attributes":{"JOINTS_0":42,"NORMAL":4,"POSITION":3,"WEIGHTS_0":43},"indices":5,"material":1,"mode":4}]},{"name":"Object_2","primitives":[{"attributes":{"JOINTS_0":44,"NORMAL":7,"POSITION":6,"WEIGHTS_0":45},"indices":8,"material":2,"mode":4}]},{"name":"Object_3","primitives":[{"attributes":{"JOINTS_0":46,"NORMAL":10,"POSITION":9,"WEIGHTS_0":47},"indices":11,"material":3,"mode":4}]},{"name":"Object_4","primitives":[{"attributes":{"JOINTS_0":48,"NORMAL":13,"POSITION":12,"WEIGHTS_0":49},"indices":14,"material":1,"mode":4}]},{"name":"Object_5","primitives":[{"attributes":{"JOINTS_0":50,"NORMAL":16,"POSITION":15,"WEIGHTS_0":51},"indices":17,"material":4,"mode":4}]},{"name":"Object_6","primitives":[{"attributes":{"JOINTS_0":52,"NORMAL":19,"POSITION":18,"WEIGHTS_0":53},"indices":20,"material":5,"mode":4}]},{"name":"Object_7","primitives":[{"attributes":{"JOINTS_0":54,"NORMAL":22,"POSITION":21,"WEIGHTS_0":55},"indices":23,"material":6,"mode":4}]},{"name":"Object_8","primitives":[{"attributes":{"JOINTS_0":56,"NORMAL":25,"POSITION":24,"WEIGHTS_0":57},"indices":26,"material":2,"mode":4}]},{"name":"Object_9","primitives":[{"attributes":{"JOINTS_0":58,"NORMAL":28,"POSITION":27,"WEIGHTS_0":59},"indices":29,"material":7,"mode":4}]},{"name":"Object_10","primitives":[{"attributes":{"JOINTS_0":60,"NORMAL":31,"POSITION":30,"WEIGHTS_0":61},"indices":32,"material":0,"mode":4}]},{"name":"Object_11","primitives":[{"attributes":{"JOINTS_0":62,"NORMAL":34,"POSITION":33,"WEIGHTS_0":63},"indices":35,"material":1,"mode":4}]},{"name":"Object_12","primitives":[{"attributes":{"NORMAL":37,"POSITION":36},"indices":38,"material":8,"mode":4}]}],"nodes":[{"children":[1],"matrix":[1,0,0,0,0,2.220446049250313e-16,-1,0,0,1,2.220446049250313e-16,0,0,0,0,1],"name":"Sketchfab_model"},{"children":[2],"name":"root"},{"children":[3],"matrix":[1,0,0,0,0,2.220446049250313e-16,1,0,0,-1,2.220446049250313e-16,0,0,0,0,1],"name":"GLTF_SceneRootNode"},{"children":[4],"name":"Sk_L11A3_16"},{"children":[5,7,8,9,10,12,27,28,29,32,33,34,35,6,11,25,30],"name":"GLTF_created_0"},{"children":[13],"name":"GLTF_created_0_rootJoint"},{"name":"L11A3_Body_14"},{"mesh":0,"name":"Object_7","skin":0},{"mesh":1,"name":"Object_8","skin":0},{"mesh":2,"name":"Object_9","skin":0},{"mesh":3,"name":"Object_10","skin":0},{"name":"L11A3_Mag_15"},{"mesh":4,"name":"Object_12","skin":0},{"children":[14,20,22,23,24],"name":"b_Weapon_11","rotation":[0,1.1920926112907182e-7,0,1]},{"children":[15,16,17,18,19],"name":"b_Mag_5","rotation":[0,-1.1920925402364446e-7,0,1],"translation":[-0.000004162883669778239,6.772805690765381,17.460403442382812]},{"name":"b_Bullet 1_0","rotation":[0.7071068286895752,-4.5237717927193444e-7,-4.5237717927193444e-7,0.7071068286895752],"translation":[2.7852765870062766e-14,6.531403064727783,-2.003023147583008]},{"name":"b_Bullet 2_1","rotation":[0.7071068286895752,-5.366708819565247e-7,-5.366708819565247e-7,0.7071068286895752],"translation":[2.7852765870062766e-14,4.958919048309326,-2.003023147583008]},{"name":"b_Bullet 3_2","rotation":[0.7071068286895752,-6.209645562194055e-7,-6.209645562194055e-7,0.7071068286895752],"translation":[2.7852765870062766e-14,3.386435031890869,-2.003023147583008]},{"name":"b_Bullet 4_3","rotation":[0.7071068286895752,-7.052582304822863e-7,-7.052582304822863e-7,0.7071068286895752],"translation":[2.7852765870062766e-14,1.6728310585021973,-2.003023147583008]},{"name":"b_Bullet 5_4","rotation":[0.7071068286895752,-7.89551961588586e-7,-7.89551961588586e-7,0.7071068286895752],"translation":[2.7852765870062766e-14,-0.05448198318481445,-2.003023147583008]},{"children":[21],"name":"b_Bolt_7","rotation":[0.7071068286895752,-3.0626614488937776e-7,-1.3767878215276141e-7,0.7071068286895752],"scale":[0.9999999403953552,0.9999997615814209,0.9999997615814209],"translation":[-0.000003089824758717441,14.770442008972168,12.959662437438965]},{"name":"b_Bolt2_6","rotation":[-1.3909077445362072e-8,-1.4210851327070215e-14,-3.552713001174143e-14,1],"scale":[0.9999998807907104,0.9999999403953552,0.9999999403953552],"translation":[9.536761353956535e-7,-7.578032493591309,0.00001430511474609375]},{"name":"b_Sight_8","rotation":[0.7071068286895752,-3.0626614488937776e-7,-1.3767882478532556e-7,0.7071068286895752],"scale":[1,0.9999998211860657,0.9999998211860657],"translation":[-0.00000396153063775273,16.6318302154541,16.615867614746094]},{"name":"b_Trigger_9","rotation":[0.9775024056434631,-1.2572333218940912e-7,-3.4958802075379936e-7,0.21092438697814941],"scale":[1,1.0000001192092896,1.0000019073486328],"translation":[-5.569721110987302e-7,9.514948844909668,6.336115837097168]},{"name":"b_Mag_Release_10","rotation":[-0.9964138865470886,-5.0424297626250336e-8,3.563374093573657e-7,0.08461318910121918],"scale":[1.000000238418579,1.0000003576278687,0.9999943971633911],"translation":[-0.0000019190235889254836,7.6171875,12.048971176147461]},{"children":[26],"name":".338_12_correction"},{"name":".338_12"},{"mesh":5,"name":"Object_27","skin":0},{"mesh":6,"name":"Object_28","skin":0},{"mesh":7,"name":"Object_29","skin":0},{"children":[31],"name":"L11A3_ScopeBarett_13_correction"},{"children":[36],"name":"L11A3_ScopeBarett_13"},{"mesh":8,"name":"Object_32","skin":0},{"mesh":9,"name":"Object_33","skin":0},{"mesh":10,"name":"Object_34","skin":0},{"mesh":11,"name":"Object_35","skin":0},{"mesh":12,"name":"Object_36"}],"scene":0,"scenes":[{"name":"Sketchfab_Scene","nodes":[0]}],"skins":[{"inverseBindMatrices":39,"joints":[5,13,14,15,16,17,18,19,20,21,22,23,24],"skeleton":5}]}